# xmcd CD database file
#
# Track frame offsets:
#	150
#	17955
#	30092
#	45410
#	58385
#	72295
#	85560
#	96665
#	106280
#	118270
#	129150
#	142717
#	156935
#	169530
#	179175
#	190285
#
# Disc length: 2662 seconds
#
# Revision: 2
# Processed by: cddbd v1.5.2PL0 Copyright (c) Steve Scherf et al.
# Submitted via: CDex 1.78
#
DISCID=d70a6410
DTITLE=Various Artist - I'm A Truck
DYEAR=1900
DGENRE=Country
TTITLE0=Nashville
TTITLE1=He Took Me For A Ride
TTITLE2=I'm A Truck
TTITLE3=It's Four In The Morning
TTITLE4=Take A Letter Maria
TTITLE5=The Pool Shark
TTITLE6=Wings Of A Dove
TTITLE7=Truck Drivin' Son-Of-A-Gun
TTITLE8=Girl On The Billboard
TTITLE9=King Of The Road
TTITLE10=Big Bad John
TTITLE11=Indiana Wants Me
TTITLE12=Roll Truck Roll
TTITLE13=Truck Drivin' Outlaw
TTITLE14=Happy Tracks
TTITLE15=Turn Your Radio Off
EXTD=
EXTT0=3:54\n
EXTT1=2:40\n
EXTT2=3:22\n
EXTT3=2:51\n
EXTT4=3:03\n
EXTT5=2:54\n
EXTT6=2:22\n
EXTT7=2:07\n
EXTT8=2:36\n
EXTT9=2:20\n
EXTT10=2:57\n
EXTT11=3:07\n
EXTT12=2:45\n
EXTT13=2:07\n
EXTT14=2:26\n
EXTT15=2:05\n
PLAYORDER=
